<mxfile host="Electron" agent="Mozilla/5.0 (X11; Linux x86_64) AppleWebKit/537.36 (KHTML, like Gecko) draw.io/24.7.5 Chrome/126.0.6478.183 Electron/31.3.0 Safari/537.36" version="24.7.5">
  <diagram id="C5RBs43oDa-KdzZeNtuy" name="Page-1">
    <mxGraphModel dx="662" dy="729" grid="1" gridSize="10" guides="1" tooltips="1" connect="1" arrows="1" fold="1" page="1" pageScale="1" pageWidth="827" pageHeight="1169" math="0" shadow="0">
      <root>
        <mxCell id="WIyWlLk6GJQsqaUBKTNV-0" />
        <mxCell id="WIyWlLk6GJQsqaUBKTNV-1" parent="WIyWlLk6GJQsqaUBKTNV-0" />
        <mxCell id="x6YLgw22ARzXV4BjCrAT-11" value="Start" style="ellipse;whiteSpace=wrap;html=1;comic=0;jiggle=10;treeFolding=0;" vertex="1" parent="WIyWlLk6GJQsqaUBKTNV-1">
          <mxGeometry x="280" y="60" width="60" height="40" as="geometry" />
        </mxCell>
        <mxCell id="x6YLgw22ARzXV4BjCrAT-17" style="edgeStyle=orthogonalEdgeStyle;rounded=0;orthogonalLoop=1;jettySize=auto;html=1;exitX=0.5;exitY=0;exitDx=0;exitDy=0;entryX=0.5;entryY=1;entryDx=0;entryDy=0;" edge="1" parent="WIyWlLk6GJQsqaUBKTNV-1" source="x6YLgw22ARzXV4BjCrAT-12" target="x6YLgw22ARzXV4BjCrAT-11">
          <mxGeometry relative="1" as="geometry" />
        </mxCell>
        <mxCell id="x6YLgw22ARzXV4BjCrAT-12" value="Play New Game?" style="rhombus;whiteSpace=wrap;html=1;" vertex="1" parent="WIyWlLk6GJQsqaUBKTNV-1">
          <mxGeometry x="270" y="130" width="80" height="80" as="geometry" />
        </mxCell>
        <mxCell id="x6YLgw22ARzXV4BjCrAT-16" value="End" style="ellipse;whiteSpace=wrap;html=1;comic=0;jiggle=10;treeFolding=0;" vertex="1" parent="WIyWlLk6GJQsqaUBKTNV-1">
          <mxGeometry x="220" y="460" width="60" height="40" as="geometry" />
        </mxCell>
      </root>
    </mxGraphModel>
  </diagram>
</mxfile>
